<svg xmlns="http://www.w3.org/2000/svg" xmlns:xlink="http://www.w3.org/1999/xlink" width="500" zoomAndPan="magnify" viewBox="0 0 375 374.999991" height="500" preserveAspectRatio="xMidYMid meet" version="1.0"><defs><g/><clipPath id="f313f2d13c"><path d="M 55 152 L 127.5 152 L 127.5 203 L 55 203 Z M 55 152 " clip-rule="nonzero"/></clipPath></defs><rect x="-37.5" width="450" fill="#ffffff" y="-37.499999" height="449.999989" fill-opacity="1"/><rect x="-37.5" width="450" fill="#ffffff" y="-37.499999" height="449.999989" fill-opacity="1"/><path fill="#74bf36" d="M 69.292969 207.847656 C 62.300781 190.757812 76.519531 174.292969 93.957031 172.171875 C 105.664062 170.75 107.019531 175.089844 105.53125 174.585938 C 92.835938 170.28125 71.863281 182.039062 73.824219 201.707031 C 75.167969 215.179688 87.136719 222.75 99.886719 219.164062 C 108.269531 216.800781 117.84375 209.464844 121.074219 200.289062 C 121.847656 198.082031 122.335938 195.9375 122.828125 193.792969 C 122.921875 193.386719 123.515625 193.425781 123.546875 193.839844 C 123.871094 198.085938 118.554688 216.152344 98.167969 221.125 C 91.609375 222.726562 84.570312 221.296875 79.664062 218.582031 C 71.859375 214.261719 72.855469 210.636719 65.132812 206.808594 C 58.214844 203.375 50.972656 206.621094 48.648438 212.308594 C 47.40625 216.035156 49.640625 221.253906 53.617188 221.503906 C 58.589844 221.503906 59.832031 215.039062 57.097656 211.3125 C 60.761719 210.945312 62.726562 217.742188 58.339844 221.503906 C 53.617188 225.480469 46.164062 223.988281 42.933594 218.769531 C 37.5 209.601562 48.84375 195.398438 64.375 204.445312 C 67.308594 206.15625 69.074219 207.984375 69.292969 207.847656 " fill-opacity="1" fill-rule="nonzero"/><g clip-path="url(#f313f2d13c)"><path fill="#74bf36" d="M 122.285156 170.46875 C 108.289062 172.226562 99.917969 156.089844 85.257812 156.75 C 65.976562 157.617188 50.03125 180.667969 62.617188 199.054688 C 61.859375 199.980469 57.808594 194.957031 56.394531 189.523438 C 52.015625 172.664062 63.871094 155.136719 79.902344 152.84375 C 103.097656 149.53125 111.582031 176.832031 125.089844 167.257812 C 126.183594 166.484375 127.585938 167.003906 127.089844 167.949219 C 125.027344 171.835938 127.8125 200.980469 99.292969 202.175781 C 85.023438 202.769531 79.171875 194.824219 81.800781 195.824219 C 82.050781 195.917969 92.59375 204.402344 107.746094 196.691406 C 118.277344 191.332031 118.476562 177.582031 122.265625 170.554688 C 122.28125 170.527344 122.28125 170.496094 122.285156 170.46875 " fill-opacity="1" fill-rule="nonzero"/></g><g fill="#272830" fill-opacity="1"><g transform="translate(151.815669, 191.624987)"><g><path d="M 1.140625 0 L 1.140625 -11.625 L 4.984375 -11.625 C 5.785156 -11.625 6.535156 -11.472656 7.234375 -11.171875 C 7.941406 -10.867188 8.554688 -10.453125 9.078125 -9.921875 C 9.609375 -9.390625 10.023438 -8.769531 10.328125 -8.0625 C 10.640625 -7.363281 10.796875 -6.613281 10.796875 -5.8125 C 10.796875 -5.007812 10.640625 -4.253906 10.328125 -3.546875 C 10.023438 -2.847656 9.609375 -2.234375 9.078125 -1.703125 C 8.554688 -1.171875 7.941406 -0.753906 7.234375 -0.453125 C 6.535156 -0.148438 5.785156 0 4.984375 0 Z M 3.703125 -2.265625 L 4.953125 -2.265625 C 5.578125 -2.265625 6.132812 -2.421875 6.625 -2.734375 C 7.113281 -3.046875 7.503906 -3.46875 7.796875 -4 C 8.085938 -4.539062 8.234375 -5.144531 8.234375 -5.8125 C 8.234375 -6.476562 8.085938 -7.078125 7.796875 -7.609375 C 7.503906 -8.148438 7.113281 -8.578125 6.625 -8.890625 C 6.132812 -9.203125 5.578125 -9.359375 4.953125 -9.359375 L 3.703125 -9.359375 Z M 3.703125 -2.265625 "/></g></g></g><g fill="#272830" fill-opacity="1"><g transform="translate(163.008558, 191.624987)"><g><path d="M 4.921875 0.15625 C 4.054688 0.15625 3.300781 -0.015625 2.65625 -0.359375 C 2.007812 -0.710938 1.503906 -1.191406 1.140625 -1.796875 C 0.773438 -2.410156 0.59375 -3.101562 0.59375 -3.875 C 0.59375 -4.644531 0.773438 -5.332031 1.140625 -5.9375 C 1.503906 -6.550781 2.007812 -7.03125 2.65625 -7.375 C 3.300781 -7.726562 4.054688 -7.90625 4.921875 -7.90625 C 5.785156 -7.90625 6.539062 -7.726562 7.1875 -7.375 C 7.832031 -7.03125 8.332031 -6.550781 8.6875 -5.9375 C 9.039062 -5.332031 9.21875 -4.644531 9.21875 -3.875 C 9.21875 -3.101562 9.039062 -2.410156 8.6875 -1.796875 C 8.332031 -1.191406 7.832031 -0.710938 7.1875 -0.359375 C 6.539062 -0.015625 5.785156 0.15625 4.921875 0.15625 Z M 4.921875 -2.03125 C 5.453125 -2.039062 5.890625 -2.21875 6.234375 -2.5625 C 6.585938 -2.914062 6.765625 -3.351562 6.765625 -3.875 C 6.765625 -4.40625 6.585938 -4.84375 6.234375 -5.1875 C 5.890625 -5.53125 5.453125 -5.707031 4.921875 -5.71875 C 4.390625 -5.707031 3.945312 -5.53125 3.59375 -5.1875 C 3.25 -4.84375 3.078125 -4.40625 3.078125 -3.875 C 3.078125 -3.351562 3.25 -2.914062 3.59375 -2.5625 C 3.945312 -2.21875 4.390625 -2.039062 4.921875 -2.03125 Z M 4.921875 -2.03125 "/></g></g></g><g fill="#272830" fill-opacity="1"><g transform="translate(172.536034, 191.624987)"><g><path d="M 5.8125 -5.828125 L 3.96875 -5.828125 L 3.96875 -3.0625 C 3.96875 -2.738281 4.050781 -2.484375 4.21875 -2.296875 C 4.382812 -2.109375 4.597656 -2.015625 4.859375 -2.015625 L 5.796875 -2.015625 L 5.796875 -0.09375 C 5.703125 -0.03125 5.535156 0.0234375 5.296875 0.078125 C 5.054688 0.128906 4.804688 0.15625 4.546875 0.15625 C 4.003906 0.15625 3.5 0.0234375 3.03125 -0.234375 C 2.570312 -0.492188 2.203125 -0.84375 1.921875 -1.28125 C 1.648438 -1.726562 1.515625 -2.222656 1.515625 -2.765625 L 1.515625 -5.828125 L 0.21875 -5.828125 L 0.21875 -7.75 L 1.515625 -7.75 L 1.515625 -10.734375 L 3.96875 -10.734375 L 3.96875 -7.75 L 5.8125 -7.75 Z M 5.8125 -5.828125 "/></g></g></g><g fill="#272830" fill-opacity="1"><g transform="translate(178.422857, 191.624987)"><g><path d="M 5.8125 -5.828125 L 3.96875 -5.828125 L 3.96875 -3.0625 C 3.96875 -2.738281 4.050781 -2.484375 4.21875 -2.296875 C 4.382812 -2.109375 4.597656 -2.015625 4.859375 -2.015625 L 5.796875 -2.015625 L 5.796875 -0.09375 C 5.703125 -0.03125 5.535156 0.0234375 5.296875 0.078125 C 5.054688 0.128906 4.804688 0.15625 4.546875 0.15625 C 4.003906 0.15625 3.5 0.0234375 3.03125 -0.234375 C 2.570312 -0.492188 2.203125 -0.84375 1.921875 -1.28125 C 1.648438 -1.726562 1.515625 -2.222656 1.515625 -2.765625 L 1.515625 -5.828125 L 0.21875 -5.828125 L 0.21875 -7.75 L 1.515625 -7.75 L 1.515625 -10.734375 L 3.96875 -10.734375 L 3.96875 -7.75 L 5.8125 -7.75 Z M 5.8125 -5.828125 "/></g></g></g><g fill="#272830" fill-opacity="1"><g transform="translate(184.309681, 191.624987)"><g><path d="M 2.609375 0.15625 C 2.234375 0.15625 1.90625 0.0195312 1.625 -0.25 C 1.351562 -0.53125 1.21875 -0.867188 1.21875 -1.265625 C 1.21875 -1.648438 1.351562 -1.976562 1.625 -2.25 C 1.90625 -2.53125 2.234375 -2.671875 2.609375 -2.671875 C 3.003906 -2.671875 3.34375 -2.53125 3.625 -2.25 C 3.90625 -1.976562 4.046875 -1.648438 4.046875 -1.265625 C 4.046875 -0.867188 3.90625 -0.53125 3.625 -0.25 C 3.34375 0.0195312 3.003906 0.15625 2.609375 0.15625 Z M 2.609375 0.15625 "/></g></g></g><g fill="#272830" fill-opacity="1"><g transform="translate(189.247606, 191.624987)"><g><path d="M 3.640625 0.15625 C 2.953125 0.15625 2.289062 -0.00390625 1.65625 -0.328125 C 1.03125 -0.648438 0.601562 -1.109375 0.375 -1.703125 L 2.1875 -2.609375 C 2.363281 -2.285156 2.570312 -2.066406 2.8125 -1.953125 C 3.050781 -1.847656 3.273438 -1.796875 3.484375 -1.796875 C 3.691406 -1.796875 3.859375 -1.835938 3.984375 -1.921875 C 4.109375 -2.003906 4.171875 -2.125 4.171875 -2.28125 C 4.171875 -2.425781 4.101562 -2.550781 3.96875 -2.65625 C 3.832031 -2.769531 3.585938 -2.890625 3.234375 -3.015625 C 2.941406 -3.140625 2.601562 -3.285156 2.21875 -3.453125 C 1.832031 -3.628906 1.5 -3.875 1.21875 -4.1875 C 0.9375 -4.5 0.796875 -4.910156 0.796875 -5.421875 C 0.796875 -5.859375 0.914062 -6.265625 1.15625 -6.640625 C 1.394531 -7.015625 1.726562 -7.316406 2.15625 -7.546875 C 2.59375 -7.785156 3.101562 -7.90625 3.6875 -7.90625 C 4.226562 -7.90625 4.726562 -7.804688 5.1875 -7.609375 C 5.644531 -7.421875 6.015625 -7.175781 6.296875 -6.875 L 5.0625 -5.484375 C 4.9375 -5.628906 4.769531 -5.757812 4.5625 -5.875 C 4.351562 -5.988281 4.117188 -6.046875 3.859375 -6.046875 C 3.648438 -6.046875 3.492188 -6.003906 3.390625 -5.921875 C 3.285156 -5.835938 3.234375 -5.726562 3.234375 -5.59375 C 3.234375 -5.457031 3.300781 -5.347656 3.4375 -5.265625 C 3.570312 -5.179688 3.78125 -5.078125 4.0625 -4.953125 C 4.4375 -4.816406 4.804688 -4.644531 5.171875 -4.4375 C 5.535156 -4.226562 5.835938 -3.957031 6.078125 -3.625 C 6.328125 -3.300781 6.453125 -2.878906 6.453125 -2.359375 C 6.453125 -1.640625 6.203125 -1.039062 5.703125 -0.5625 C 5.203125 -0.0820312 4.515625 0.15625 3.640625 0.15625 Z M 3.640625 0.15625 "/></g></g></g><g fill="#272830" fill-opacity="1"><g transform="translate(195.754118, 191.624987)"><g><path d="M 3.640625 0.15625 C 2.953125 0.15625 2.289062 -0.00390625 1.65625 -0.328125 C 1.03125 -0.648438 0.601562 -1.109375 0.375 -1.703125 L 2.1875 -2.609375 C 2.363281 -2.285156 2.570312 -2.066406 2.8125 -1.953125 C 3.050781 -1.847656 3.273438 -1.796875 3.484375 -1.796875 C 3.691406 -1.796875 3.859375 -1.835938 3.984375 -1.921875 C 4.109375 -2.003906 4.171875 -2.125 4.171875 -2.28125 C 4.171875 -2.425781 4.101562 -2.550781 3.96875 -2.65625 C 3.832031 -2.769531 3.585938 -2.890625 3.234375 -3.015625 C 2.941406 -3.140625 2.601562 -3.285156 2.21875 -3.453125 C 1.832031 -3.628906 1.5 -3.875 1.21875 -4.1875 C 0.9375 -4.5 0.796875 -4.910156 0.796875 -5.421875 C 0.796875 -5.859375 0.914062 -6.265625 1.15625 -6.640625 C 1.394531 -7.015625 1.726562 -7.316406 2.15625 -7.546875 C 2.59375 -7.785156 3.101562 -7.90625 3.6875 -7.90625 C 4.226562 -7.90625 4.726562 -7.804688 5.1875 -7.609375 C 5.644531 -7.421875 6.015625 -7.175781 6.296875 -6.875 L 5.0625 -5.484375 C 4.9375 -5.628906 4.769531 -5.757812 4.5625 -5.875 C 4.351562 -5.988281 4.117188 -6.046875 3.859375 -6.046875 C 3.648438 -6.046875 3.492188 -6.003906 3.390625 -5.921875 C 3.285156 -5.835938 3.234375 -5.726562 3.234375 -5.59375 C 3.234375 -5.457031 3.300781 -5.347656 3.4375 -5.265625 C 3.570312 -5.179688 3.78125 -5.078125 4.0625 -4.953125 C 4.4375 -4.816406 4.804688 -4.644531 5.171875 -4.4375 C 5.535156 -4.226562 5.835938 -3.957031 6.078125 -3.625 C 6.328125 -3.300781 6.453125 -2.878906 6.453125 -2.359375 C 6.453125 -1.640625 6.203125 -1.039062 5.703125 -0.5625 C 5.203125 -0.0820312 4.515625 0.15625 3.640625 0.15625 Z M 3.640625 0.15625 "/></g></g></g><g fill="#272830" fill-opacity="1"><g transform="translate(202.260627, 191.624987)"><g><path d="M 9.78125 -2.015625 L 10.140625 -2.015625 L 10.140625 0 C 10.046875 0.0390625 9.941406 0.078125 9.828125 0.109375 C 9.722656 0.140625 9.601562 0.15625 9.46875 0.15625 C 8.957031 0.15625 8.492188 0.0351562 8.078125 -0.203125 C 7.660156 -0.441406 7.332031 -0.757812 7.09375 -1.15625 C 6.78125 -0.757812 6.398438 -0.441406 5.953125 -0.203125 C 5.515625 0.0351562 5.007812 0.15625 4.4375 0.15625 C 3.726562 0.15625 3.082031 -0.0234375 2.5 -0.390625 C 1.914062 -0.753906 1.453125 -1.238281 1.109375 -1.84375 C 0.765625 -2.445312 0.59375 -3.125 0.59375 -3.875 C 0.59375 -4.625 0.765625 -5.300781 1.109375 -5.90625 C 1.453125 -6.507812 1.914062 -6.992188 2.5 -7.359375 C 3.082031 -7.722656 3.726562 -7.90625 4.4375 -7.90625 C 4.882812 -7.90625 5.289062 -7.828125 5.65625 -7.671875 C 6.03125 -7.523438 6.359375 -7.328125 6.640625 -7.078125 L 6.640625 -7.75 L 9.109375 -7.75 L 9.109375 -2.765625 C 9.109375 -2.441406 9.175781 -2.234375 9.3125 -2.140625 C 9.457031 -2.054688 9.613281 -2.015625 9.78125 -2.015625 Z M 4.921875 -2.03125 C 5.421875 -2.03125 5.851562 -2.207031 6.21875 -2.5625 C 6.582031 -2.914062 6.765625 -3.351562 6.765625 -3.875 C 6.765625 -4.394531 6.582031 -4.832031 6.21875 -5.1875 C 5.851562 -5.539062 5.421875 -5.71875 4.921875 -5.71875 C 4.398438 -5.71875 3.960938 -5.539062 3.609375 -5.1875 C 3.253906 -4.832031 3.078125 -4.394531 3.078125 -3.875 C 3.078125 -3.351562 3.253906 -2.914062 3.609375 -2.5625 C 3.960938 -2.207031 4.398438 -2.03125 4.921875 -2.03125 Z M 4.921875 -2.03125 "/></g></g></g><g fill="#272830" fill-opacity="1"><g transform="translate(212.369061, 191.624987)"><g/></g></g><g fill="#272830" fill-opacity="1"><g transform="translate(216.706675, 191.624987)"><g><path d="M 6.6875 0.15625 C 5.851562 0.15625 5.078125 0 4.359375 -0.3125 C 3.648438 -0.625 3.019531 -1.050781 2.46875 -1.59375 C 1.914062 -2.144531 1.484375 -2.78125 1.171875 -3.5 C 0.867188 -4.21875 0.71875 -4.988281 0.71875 -5.8125 C 0.71875 -6.632812 0.867188 -7.40625 1.171875 -8.125 C 1.484375 -8.84375 1.914062 -9.472656 2.46875 -10.015625 C 3.019531 -10.566406 3.648438 -11 4.359375 -11.3125 C 5.078125 -11.625 5.851562 -11.78125 6.6875 -11.78125 C 7.832031 -11.78125 8.875 -11.484375 9.8125 -10.890625 C 10.757812 -10.304688 11.476562 -9.535156 11.96875 -8.578125 L 9.765625 -7.4375 C 9.484375 -7.988281 9.070312 -8.429688 8.53125 -8.765625 C 7.988281 -9.109375 7.375 -9.28125 6.6875 -9.28125 C 6.039062 -9.28125 5.453125 -9.128906 4.921875 -8.828125 C 4.398438 -8.523438 3.988281 -8.109375 3.6875 -7.578125 C 3.382812 -7.054688 3.234375 -6.46875 3.234375 -5.8125 C 3.234375 -5.15625 3.382812 -4.5625 3.6875 -4.03125 C 3.988281 -3.507812 4.398438 -3.097656 4.921875 -2.796875 C 5.453125 -2.492188 6.039062 -2.34375 6.6875 -2.34375 C 7.375 -2.34375 7.988281 -2.507812 8.53125 -2.84375 C 9.070312 -3.1875 9.484375 -3.632812 9.765625 -4.1875 L 11.96875 -3.046875 C 11.476562 -2.097656 10.757812 -1.328125 9.8125 -0.734375 C 8.875 -0.140625 7.832031 0.15625 6.6875 0.15625 Z M 6.6875 0.15625 "/></g></g></g><g fill="#272830" fill-opacity="1"><g transform="translate(228.867824, 191.624987)"><g><path d="M 4.921875 0.15625 C 4.054688 0.15625 3.300781 -0.015625 2.65625 -0.359375 C 2.007812 -0.710938 1.503906 -1.191406 1.140625 -1.796875 C 0.773438 -2.410156 0.59375 -3.101562 0.59375 -3.875 C 0.59375 -4.644531 0.773438 -5.332031 1.140625 -5.9375 C 1.503906 -6.550781 2.007812 -7.03125 2.65625 -7.375 C 3.300781 -7.726562 4.054688 -7.90625 4.921875 -7.90625 C 5.785156 -7.90625 6.539062 -7.726562 7.1875 -7.375 C 7.832031 -7.03125 8.332031 -6.550781 8.6875 -5.9375 C 9.039062 -5.332031 9.21875 -4.644531 9.21875 -3.875 C 9.21875 -3.101562 9.039062 -2.410156 8.6875 -1.796875 C 8.332031 -1.191406 7.832031 -0.710938 7.1875 -0.359375 C 6.539062 -0.015625 5.785156 0.15625 4.921875 0.15625 Z M 4.921875 -2.03125 C 5.453125 -2.039062 5.890625 -2.21875 6.234375 -2.5625 C 6.585938 -2.914062 6.765625 -3.351562 6.765625 -3.875 C 6.765625 -4.40625 6.585938 -4.84375 6.234375 -5.1875 C 5.890625 -5.53125 5.453125 -5.707031 4.921875 -5.71875 C 4.390625 -5.707031 3.945312 -5.53125 3.59375 -5.1875 C 3.25 -4.84375 3.078125 -4.40625 3.078125 -3.875 C 3.078125 -3.351562 3.25 -2.914062 3.59375 -2.5625 C 3.945312 -2.21875 4.390625 -2.039062 4.921875 -2.03125 Z M 4.921875 -2.03125 "/></g></g></g><g fill="#272830" fill-opacity="1"><g transform="translate(238.395299, 191.624987)"><g><path d="M 3.640625 0.15625 C 2.953125 0.15625 2.289062 -0.00390625 1.65625 -0.328125 C 1.03125 -0.648438 0.601562 -1.109375 0.375 -1.703125 L 2.1875 -2.609375 C 2.363281 -2.285156 2.570312 -2.066406 2.8125 -1.953125 C 3.050781 -1.847656 3.273438 -1.796875 3.484375 -1.796875 C 3.691406 -1.796875 3.859375 -1.835938 3.984375 -1.921875 C 4.109375 -2.003906 4.171875 -2.125 4.171875 -2.28125 C 4.171875 -2.425781 4.101562 -2.550781 3.96875 -2.65625 C 3.832031 -2.769531 3.585938 -2.890625 3.234375 -3.015625 C 2.941406 -3.140625 2.601562 -3.285156 2.21875 -3.453125 C 1.832031 -3.628906 1.5 -3.875 1.21875 -4.1875 C 0.9375 -4.5 0.796875 -4.910156 0.796875 -5.421875 C 0.796875 -5.859375 0.914062 -6.265625 1.15625 -6.640625 C 1.394531 -7.015625 1.726562 -7.316406 2.15625 -7.546875 C 2.59375 -7.785156 3.101562 -7.90625 3.6875 -7.90625 C 4.226562 -7.90625 4.726562 -7.804688 5.1875 -7.609375 C 5.644531 -7.421875 6.015625 -7.175781 6.296875 -6.875 L 5.0625 -5.484375 C 4.9375 -5.628906 4.769531 -5.757812 4.5625 -5.875 C 4.351562 -5.988281 4.117188 -6.046875 3.859375 -6.046875 C 3.648438 -6.046875 3.492188 -6.003906 3.390625 -5.921875 C 3.285156 -5.835938 3.234375 -5.726562 3.234375 -5.59375 C 3.234375 -5.457031 3.300781 -5.347656 3.4375 -5.265625 C 3.570312 -5.179688 3.78125 -5.078125 4.0625 -4.953125 C 4.4375 -4.816406 4.804688 -4.644531 5.171875 -4.4375 C 5.535156 -4.226562 5.835938 -3.957031 6.078125 -3.625 C 6.328125 -3.300781 6.453125 -2.878906 6.453125 -2.359375 C 6.453125 -1.640625 6.203125 -1.039062 5.703125 -0.5625 C 5.203125 -0.0820312 4.515625 0.15625 3.640625 0.15625 Z M 3.640625 0.15625 "/></g></g></g><g fill="#272830" fill-opacity="1"><g transform="translate(244.901808, 191.624987)"><g><path d="M 5.8125 -5.828125 L 3.96875 -5.828125 L 3.96875 -3.0625 C 3.96875 -2.738281 4.050781 -2.484375 4.21875 -2.296875 C 4.382812 -2.109375 4.597656 -2.015625 4.859375 -2.015625 L 5.796875 -2.015625 L 5.796875 -0.09375 C 5.703125 -0.03125 5.535156 0.0234375 5.296875 0.078125 C 5.054688 0.128906 4.804688 0.15625 4.546875 0.15625 C 4.003906 0.15625 3.5 0.0234375 3.03125 -0.234375 C 2.570312 -0.492188 2.203125 -0.84375 1.921875 -1.28125 C 1.648438 -1.726562 1.515625 -2.222656 1.515625 -2.765625 L 1.515625 -5.828125 L 0.21875 -5.828125 L 0.21875 -7.75 L 1.515625 -7.75 L 1.515625 -10.734375 L 3.96875 -10.734375 L 3.96875 -7.75 L 5.8125 -7.75 Z M 5.8125 -5.828125 "/></g></g></g><g fill="#272830" fill-opacity="1"><g transform="translate(250.788632, 191.624987)"><g><path d="M 9.78125 -2.015625 L 10.140625 -2.015625 L 10.140625 0 C 10.046875 0.0390625 9.941406 0.078125 9.828125 0.109375 C 9.722656 0.140625 9.601562 0.15625 9.46875 0.15625 C 8.957031 0.15625 8.492188 0.0351562 8.078125 -0.203125 C 7.660156 -0.441406 7.332031 -0.757812 7.09375 -1.15625 C 6.78125 -0.757812 6.398438 -0.441406 5.953125 -0.203125 C 5.515625 0.0351562 5.007812 0.15625 4.4375 0.15625 C 3.726562 0.15625 3.082031 -0.0234375 2.5 -0.390625 C 1.914062 -0.753906 1.453125 -1.238281 1.109375 -1.84375 C 0.765625 -2.445312 0.59375 -3.125 0.59375 -3.875 C 0.59375 -4.625 0.765625 -5.300781 1.109375 -5.90625 C 1.453125 -6.507812 1.914062 -6.992188 2.5 -7.359375 C 3.082031 -7.722656 3.726562 -7.90625 4.4375 -7.90625 C 4.882812 -7.90625 5.289062 -7.828125 5.65625 -7.671875 C 6.03125 -7.523438 6.359375 -7.328125 6.640625 -7.078125 L 6.640625 -7.75 L 9.109375 -7.75 L 9.109375 -2.765625 C 9.109375 -2.441406 9.175781 -2.234375 9.3125 -2.140625 C 9.457031 -2.054688 9.613281 -2.015625 9.78125 -2.015625 Z M 4.921875 -2.03125 C 5.421875 -2.03125 5.851562 -2.207031 6.21875 -2.5625 C 6.582031 -2.914062 6.765625 -3.351562 6.765625 -3.875 C 6.765625 -4.394531 6.582031 -4.832031 6.21875 -5.1875 C 5.851562 -5.539062 5.421875 -5.71875 4.921875 -5.71875 C 4.398438 -5.71875 3.960938 -5.539062 3.609375 -5.1875 C 3.253906 -4.832031 3.078125 -4.394531 3.078125 -3.875 C 3.078125 -3.351562 3.253906 -2.914062 3.609375 -2.5625 C 3.960938 -2.207031 4.398438 -2.03125 4.921875 -2.03125 Z M 4.921875 -2.03125 "/></g></g></g><g fill="#272830" fill-opacity="1"><g transform="translate(260.897071, 191.624987)"><g><path d="M 5.828125 -7.90625 C 6.347656 -7.90625 6.8125 -7.769531 7.21875 -7.5 C 7.632812 -7.238281 7.96875 -6.878906 8.21875 -6.421875 C 8.476562 -5.972656 8.609375 -5.46875 8.609375 -4.90625 L 8.609375 0 L 6.140625 0 L 6.140625 -4.5 C 6.140625 -4.84375 6.023438 -5.128906 5.796875 -5.359375 C 5.578125 -5.597656 5.285156 -5.71875 4.921875 -5.71875 C 4.554688 -5.71875 4.25 -5.597656 4 -5.359375 C 3.75 -5.128906 3.625 -4.84375 3.625 -4.5 L 3.625 0 L 1.140625 0 L 1.140625 -7.75 L 3.625 -7.75 L 3.625 -6.796875 C 3.894531 -7.128906 4.21875 -7.394531 4.59375 -7.59375 C 4.976562 -7.800781 5.390625 -7.90625 5.828125 -7.90625 Z M 5.828125 -7.90625 "/></g></g></g><g fill="#272830" fill-opacity="1"><g transform="translate(270.172805, 191.624987)"><g><path d="M 7.296875 -7.75 L 4.046875 -2.046875 L 7.1875 -2.046875 L 7.1875 0 L 0.40625 0 L 3.640625 -5.703125 L 0.8125 -5.703125 L 0.8125 -7.75 Z M 7.296875 -7.75 "/></g></g></g><g fill="#272830" fill-opacity="1"><g transform="translate(277.434561, 191.624987)"><g><path d="M 9.78125 -2.015625 L 10.140625 -2.015625 L 10.140625 0 C 10.046875 0.0390625 9.941406 0.078125 9.828125 0.109375 C 9.722656 0.140625 9.601562 0.15625 9.46875 0.15625 C 8.957031 0.15625 8.492188 0.0351562 8.078125 -0.203125 C 7.660156 -0.441406 7.332031 -0.757812 7.09375 -1.15625 C 6.78125 -0.757812 6.398438 -0.441406 5.953125 -0.203125 C 5.515625 0.0351562 5.007812 0.15625 4.4375 0.15625 C 3.726562 0.15625 3.082031 -0.0234375 2.5 -0.390625 C 1.914062 -0.753906 1.453125 -1.238281 1.109375 -1.84375 C 0.765625 -2.445312 0.59375 -3.125 0.59375 -3.875 C 0.59375 -4.625 0.765625 -5.300781 1.109375 -5.90625 C 1.453125 -6.507812 1.914062 -6.992188 2.5 -7.359375 C 3.082031 -7.722656 3.726562 -7.90625 4.4375 -7.90625 C 4.882812 -7.90625 5.289062 -7.828125 5.65625 -7.671875 C 6.03125 -7.523438 6.359375 -7.328125 6.640625 -7.078125 L 6.640625 -7.75 L 9.109375 -7.75 L 9.109375 -2.765625 C 9.109375 -2.441406 9.175781 -2.234375 9.3125 -2.140625 C 9.457031 -2.054688 9.613281 -2.015625 9.78125 -2.015625 Z M 4.921875 -2.03125 C 5.421875 -2.03125 5.851562 -2.207031 6.21875 -2.5625 C 6.582031 -2.914062 6.765625 -3.351562 6.765625 -3.875 C 6.765625 -4.394531 6.582031 -4.832031 6.21875 -5.1875 C 5.851562 -5.539062 5.421875 -5.71875 4.921875 -5.71875 C 4.398438 -5.71875 3.960938 -5.539062 3.609375 -5.1875 C 3.253906 -4.832031 3.078125 -4.394531 3.078125 -3.875 C 3.078125 -3.351562 3.253906 -2.914062 3.609375 -2.5625 C 3.960938 -2.207031 4.398438 -2.03125 4.921875 -2.03125 Z M 4.921875 -2.03125 "/></g></g></g><g fill="#272830" fill-opacity="1"><g transform="translate(287.543001, 191.624987)"><g/></g></g><g fill="#272830" fill-opacity="1"><g transform="translate(291.88062, 191.624987)"><g><path d="M 9.5 -11.625 L 12.03125 -11.625 L 12.03125 0 L 9.390625 0 L 3.703125 -7.71875 L 3.703125 0 L 1.140625 0 L 1.140625 -11.625 L 3.78125 -11.625 L 9.5 -3.9375 Z M 9.5 -11.625 "/></g></g></g><g fill="#272830" fill-opacity="1"><g transform="translate(304.758278, 191.624987)"><g><path d="M 9.78125 -2.015625 L 10.140625 -2.015625 L 10.140625 0 C 10.046875 0.0390625 9.941406 0.078125 9.828125 0.109375 C 9.722656 0.140625 9.601562 0.15625 9.46875 0.15625 C 8.957031 0.15625 8.492188 0.0351562 8.078125 -0.203125 C 7.660156 -0.441406 7.332031 -0.757812 7.09375 -1.15625 C 6.78125 -0.757812 6.398438 -0.441406 5.953125 -0.203125 C 5.515625 0.0351562 5.007812 0.15625 4.4375 0.15625 C 3.726562 0.15625 3.082031 -0.0234375 2.5 -0.390625 C 1.914062 -0.753906 1.453125 -1.238281 1.109375 -1.84375 C 0.765625 -2.445312 0.59375 -3.125 0.59375 -3.875 C 0.59375 -4.625 0.765625 -5.300781 1.109375 -5.90625 C 1.453125 -6.507812 1.914062 -6.992188 2.5 -7.359375 C 3.082031 -7.722656 3.726562 -7.90625 4.4375 -7.90625 C 4.882812 -7.90625 5.289062 -7.828125 5.65625 -7.671875 C 6.03125 -7.523438 6.359375 -7.328125 6.640625 -7.078125 L 6.640625 -7.75 L 9.109375 -7.75 L 9.109375 -2.765625 C 9.109375 -2.441406 9.175781 -2.234375 9.3125 -2.140625 C 9.457031 -2.054688 9.613281 -2.015625 9.78125 -2.015625 Z M 4.921875 -2.03125 C 5.421875 -2.03125 5.851562 -2.207031 6.21875 -2.5625 C 6.582031 -2.914062 6.765625 -3.351562 6.765625 -3.875 C 6.765625 -4.394531 6.582031 -4.832031 6.21875 -5.1875 C 5.851562 -5.539062 5.421875 -5.71875 4.921875 -5.71875 C 4.398438 -5.71875 3.960938 -5.539062 3.609375 -5.1875 C 3.253906 -4.832031 3.078125 -4.394531 3.078125 -3.875 C 3.078125 -3.351562 3.253906 -2.914062 3.609375 -2.5625 C 3.960938 -2.207031 4.398438 -2.03125 4.921875 -2.03125 Z M 4.921875 -2.03125 "/></g></g></g><g fill="#272830" fill-opacity="1"><g transform="translate(314.866718, 191.624987)"><g><path d="M 3.640625 0.15625 C 2.953125 0.15625 2.289062 -0.00390625 1.65625 -0.328125 C 1.03125 -0.648438 0.601562 -1.109375 0.375 -1.703125 L 2.1875 -2.609375 C 2.363281 -2.285156 2.570312 -2.066406 2.8125 -1.953125 C 3.050781 -1.847656 3.273438 -1.796875 3.484375 -1.796875 C 3.691406 -1.796875 3.859375 -1.835938 3.984375 -1.921875 C 4.109375 -2.003906 4.171875 -2.125 4.171875 -2.28125 C 4.171875 -2.425781 4.101562 -2.550781 3.96875 -2.65625 C 3.832031 -2.769531 3.585938 -2.890625 3.234375 -3.015625 C 2.941406 -3.140625 2.601562 -3.285156 2.21875 -3.453125 C 1.832031 -3.628906 1.5 -3.875 1.21875 -4.1875 C 0.9375 -4.5 0.796875 -4.910156 0.796875 -5.421875 C 0.796875 -5.859375 0.914062 -6.265625 1.15625 -6.640625 C 1.394531 -7.015625 1.726562 -7.316406 2.15625 -7.546875 C 2.59375 -7.785156 3.101562 -7.90625 3.6875 -7.90625 C 4.226562 -7.90625 4.726562 -7.804688 5.1875 -7.609375 C 5.644531 -7.421875 6.015625 -7.175781 6.296875 -6.875 L 5.0625 -5.484375 C 4.9375 -5.628906 4.769531 -5.757812 4.5625 -5.875 C 4.351562 -5.988281 4.117188 -6.046875 3.859375 -6.046875 C 3.648438 -6.046875 3.492188 -6.003906 3.390625 -5.921875 C 3.285156 -5.835938 3.234375 -5.726562 3.234375 -5.59375 C 3.234375 -5.457031 3.300781 -5.347656 3.4375 -5.265625 C 3.570312 -5.179688 3.78125 -5.078125 4.0625 -4.953125 C 4.4375 -4.816406 4.804688 -4.644531 5.171875 -4.4375 C 5.535156 -4.226562 5.835938 -3.957031 6.078125 -3.625 C 6.328125 -3.300781 6.453125 -2.878906 6.453125 -2.359375 C 6.453125 -1.640625 6.203125 -1.039062 5.703125 -0.5625 C 5.203125 -0.0820312 4.515625 0.15625 3.640625 0.15625 Z M 3.640625 0.15625 "/></g></g></g><g fill="#272830" fill-opacity="1"><g transform="translate(321.373233, 191.624987)"><g><path d="M 5.8125 -5.828125 L 3.96875 -5.828125 L 3.96875 -3.0625 C 3.96875 -2.738281 4.050781 -2.484375 4.21875 -2.296875 C 4.382812 -2.109375 4.597656 -2.015625 4.859375 -2.015625 L 5.796875 -2.015625 L 5.796875 -0.09375 C 5.703125 -0.03125 5.535156 0.0234375 5.296875 0.078125 C 5.054688 0.128906 4.804688 0.15625 4.546875 0.15625 C 4.003906 0.15625 3.5 0.0234375 3.03125 -0.234375 C 2.570312 -0.492188 2.203125 -0.84375 1.921875 -1.28125 C 1.648438 -1.726562 1.515625 -2.222656 1.515625 -2.765625 L 1.515625 -5.828125 L 0.21875 -5.828125 L 0.21875 -7.75 L 1.515625 -7.75 L 1.515625 -10.734375 L 3.96875 -10.734375 L 3.96875 -7.75 L 5.8125 -7.75 Z M 5.8125 -5.828125 "/></g></g></g><g fill="#272830" fill-opacity="1"><g transform="translate(327.260062, 191.624987)"><g><path d="M 9.78125 -2.015625 L 10.140625 -2.015625 L 10.140625 0 C 10.046875 0.0390625 9.941406 0.078125 9.828125 0.109375 C 9.722656 0.140625 9.601562 0.15625 9.46875 0.15625 C 8.957031 0.15625 8.492188 0.0351562 8.078125 -0.203125 C 7.660156 -0.441406 7.332031 -0.757812 7.09375 -1.15625 C 6.78125 -0.757812 6.398438 -0.441406 5.953125 -0.203125 C 5.515625 0.0351562 5.007812 0.15625 4.4375 0.15625 C 3.726562 0.15625 3.082031 -0.0234375 2.5 -0.390625 C 1.914062 -0.753906 1.453125 -1.238281 1.109375 -1.84375 C 0.765625 -2.445312 0.59375 -3.125 0.59375 -3.875 C 0.59375 -4.625 0.765625 -5.300781 1.109375 -5.90625 C 1.453125 -6.507812 1.914062 -6.992188 2.5 -7.359375 C 3.082031 -7.722656 3.726562 -7.90625 4.4375 -7.90625 C 4.882812 -7.90625 5.289062 -7.828125 5.65625 -7.671875 C 6.03125 -7.523438 6.359375 -7.328125 6.640625 -7.078125 L 6.640625 -7.75 L 9.109375 -7.75 L 9.109375 -2.765625 C 9.109375 -2.441406 9.175781 -2.234375 9.3125 -2.140625 C 9.457031 -2.054688 9.613281 -2.015625 9.78125 -2.015625 Z M 4.921875 -2.03125 C 5.421875 -2.03125 5.851562 -2.207031 6.21875 -2.5625 C 6.582031 -2.914062 6.765625 -3.351562 6.765625 -3.875 C 6.765625 -4.394531 6.582031 -4.832031 6.21875 -5.1875 C 5.851562 -5.539062 5.421875 -5.71875 4.921875 -5.71875 C 4.398438 -5.71875 3.960938 -5.539062 3.609375 -5.1875 C 3.253906 -4.832031 3.078125 -4.394531 3.078125 -3.875 C 3.078125 -3.351562 3.253906 -2.914062 3.609375 -2.5625 C 3.960938 -2.207031 4.398438 -2.03125 4.921875 -2.03125 Z M 4.921875 -2.03125 "/></g></g></g><g fill="#95cb22" fill-opacity="1"><g transform="translate(151.815669, 210.327514)"><g><path d="M 0.625 -5.84375 L 3 -5.84375 C 3.59375 -5.84375 4.0625 -5.695312 4.40625 -5.40625 C 4.75 -5.113281 4.921875 -4.75 4.921875 -4.3125 C 4.921875 -3.65625 4.539062 -3.210938 3.78125 -2.984375 C 4.164062 -2.929688 4.472656 -2.765625 4.703125 -2.484375 C 4.941406 -2.210938 5.0625 -1.894531 5.0625 -1.53125 C 5.0625 -1.070312 4.882812 -0.703125 4.53125 -0.421875 C 4.1875 -0.140625 3.71875 0 3.125 0 L 0.625 0 Z M 1.8125 -4.9375 L 1.8125 -3.421875 L 2.875 -3.421875 C 3.132812 -3.421875 3.34375 -3.484375 3.5 -3.609375 C 3.65625 -3.742188 3.734375 -3.929688 3.734375 -4.171875 C 3.734375 -4.421875 3.65625 -4.609375 3.5 -4.734375 C 3.34375 -4.867188 3.132812 -4.9375 2.875 -4.9375 Z M 1.8125 -0.90625 L 3 -0.90625 C 3.257812 -0.90625 3.46875 -0.972656 3.625 -1.109375 C 3.789062 -1.253906 3.875 -1.453125 3.875 -1.703125 C 3.875 -1.953125 3.789062 -2.148438 3.625 -2.296875 C 3.46875 -2.441406 3.253906 -2.515625 2.984375 -2.515625 L 1.8125 -2.515625 Z M 1.8125 -0.90625 "/></g></g></g><g fill="#95cb22" fill-opacity="1"><g transform="translate(158.262663, 210.327514)"><g><path d="M 0.625 0 L 0.625 -5.84375 L 1.8125 -5.84375 L 1.8125 0 Z M 0.625 0 "/></g></g></g><g fill="#95cb22" fill-opacity="1"><g transform="translate(161.703846, 210.327514)"><g><path d="M 4.578125 -1.53125 C 4.910156 -1.882812 5.078125 -2.351562 5.078125 -2.9375 C 5.078125 -3.519531 4.910156 -3.984375 4.578125 -4.328125 C 4.253906 -4.671875 3.828125 -4.84375 3.296875 -4.84375 C 2.765625 -4.84375 2.332031 -4.664062 2 -4.3125 C 1.664062 -3.96875 1.5 -3.503906 1.5 -2.921875 C 1.5 -2.347656 1.664062 -1.882812 2 -1.53125 C 2.332031 -1.1875 2.765625 -1.015625 3.296875 -1.015625 C 3.828125 -1.015625 4.253906 -1.1875 4.578125 -1.53125 Z M 3.296875 0.0625 C 2.453125 0.0625 1.738281 -0.21875 1.15625 -0.78125 C 0.582031 -1.351562 0.296875 -2.070312 0.296875 -2.9375 C 0.296875 -3.800781 0.582031 -4.515625 1.15625 -5.078125 C 1.738281 -5.640625 2.453125 -5.921875 3.296875 -5.921875 C 4.140625 -5.921875 4.847656 -5.640625 5.421875 -5.078125 C 5.992188 -4.515625 6.28125 -3.800781 6.28125 -2.9375 C 6.28125 -2.070312 5.992188 -1.351562 5.421875 -0.78125 C 4.847656 -0.21875 4.140625 0.0625 3.296875 0.0625 Z M 3.296875 0.0625 "/></g></g></g><g fill="#95cb22" fill-opacity="1"><g transform="translate(169.289537, 210.327514)"><g><path d="M 0.625 -5.84375 L 1.8125 -5.84375 L 1.8125 -0.890625 L 3.6875 -0.890625 L 3.6875 0 L 0.625 0 Z M 0.625 -5.84375 "/></g></g></g><g fill="#95cb22" fill-opacity="1"><g transform="translate(174.145713, 210.327514)"><g><path d="M 4.578125 -1.53125 C 4.910156 -1.882812 5.078125 -2.351562 5.078125 -2.9375 C 5.078125 -3.519531 4.910156 -3.984375 4.578125 -4.328125 C 4.253906 -4.671875 3.828125 -4.84375 3.296875 -4.84375 C 2.765625 -4.84375 2.332031 -4.664062 2 -4.3125 C 1.664062 -3.96875 1.5 -3.503906 1.5 -2.921875 C 1.5 -2.347656 1.664062 -1.882812 2 -1.53125 C 2.332031 -1.1875 2.765625 -1.015625 3.296875 -1.015625 C 3.828125 -1.015625 4.253906 -1.1875 4.578125 -1.53125 Z M 3.296875 0.0625 C 2.453125 0.0625 1.738281 -0.21875 1.15625 -0.78125 C 0.582031 -1.351562 0.296875 -2.070312 0.296875 -2.9375 C 0.296875 -3.800781 0.582031 -4.515625 1.15625 -5.078125 C 1.738281 -5.640625 2.453125 -5.921875 3.296875 -5.921875 C 4.140625 -5.921875 4.847656 -5.640625 5.421875 -5.078125 C 5.992188 -4.515625 6.28125 -3.800781 6.28125 -2.9375 C 6.28125 -2.070312 5.992188 -1.351562 5.421875 -0.78125 C 4.847656 -0.21875 4.140625 0.0625 3.296875 0.0625 Z M 3.296875 0.0625 "/></g></g></g><g fill="#95cb22" fill-opacity="1"><g transform="translate(181.731406, 210.327514)"><g><path d="M 1.15625 -0.796875 C 0.582031 -1.359375 0.296875 -2.070312 0.296875 -2.9375 C 0.296875 -3.800781 0.582031 -4.515625 1.15625 -5.078125 C 1.738281 -5.640625 2.453125 -5.921875 3.296875 -5.921875 C 3.929688 -5.921875 4.492188 -5.757812 4.984375 -5.4375 C 5.484375 -5.113281 5.835938 -4.660156 6.046875 -4.078125 L 4.625 -4.078125 C 4.363281 -4.585938 3.921875 -4.84375 3.296875 -4.84375 C 2.765625 -4.84375 2.332031 -4.664062 2 -4.3125 C 1.664062 -3.96875 1.5 -3.503906 1.5 -2.921875 C 1.5 -2.347656 1.664062 -1.882812 2 -1.53125 C 2.332031 -1.1875 2.738281 -1.015625 3.21875 -1.015625 C 3.695312 -1.015625 4.078125 -1.132812 4.359375 -1.375 C 4.640625 -1.613281 4.8125 -1.9375 4.875 -2.34375 L 2.9375 -2.34375 L 2.9375 -3.234375 L 6.140625 -3.234375 L 6.140625 -2.34375 C 6.035156 -1.695312 5.71875 -1.132812 5.1875 -0.65625 C 4.664062 -0.1875 4.007812 0.046875 3.21875 0.046875 C 2.425781 0.046875 1.738281 -0.234375 1.15625 -0.796875 Z M 1.15625 -0.796875 "/></g></g></g><g fill="#95cb22" fill-opacity="1"><g transform="translate(189.174755, 210.327514)"><g><path d="M 4.46875 0 L 4.09375 -1.09375 L 1.8125 -1.09375 L 1.4375 0 L 0.1875 0 L 2.25 -5.859375 L 3.65625 -5.859375 L 5.71875 0 Z M 2.125 -2 L 3.78125 -2 L 2.953125 -4.4375 Z M 2.125 -2 "/></g></g></g><g fill="#95cb22" fill-opacity="1"><g transform="translate(196.08225, 210.327514)"><g/></g></g><g fill="#95cb22" fill-opacity="1"><g transform="translate(199.59879, 210.327514)"><g><path d="M 4.453125 -5.859375 L 5.640625 -5.859375 L 5.640625 0 L 4.453125 0 L 1.8125 -4.046875 L 1.8125 0 L 0.625 0 L 0.625 -5.859375 L 1.8125 -5.859375 L 4.453125 -1.8125 Z M 4.453125 -5.859375 "/></g></g></g><g fill="#95cb22" fill-opacity="1"><g transform="translate(206.866315, 210.327514)"><g><path d="M 0.609375 -2.25 L 0.609375 -5.84375 L 1.796875 -5.84375 L 1.796875 -2.25 C 1.796875 -1.84375 1.894531 -1.535156 2.09375 -1.328125 C 2.300781 -1.117188 2.59375 -1.015625 2.96875 -1.015625 C 3.351562 -1.015625 3.644531 -1.117188 3.84375 -1.328125 C 4.050781 -1.535156 4.15625 -1.84375 4.15625 -2.25 L 4.15625 -5.84375 L 5.328125 -5.84375 L 5.328125 -2.25 C 5.328125 -1.507812 5.09375 -0.9375 4.625 -0.53125 C 4.164062 -0.132812 3.601562 0.0625 2.9375 0.0625 C 2.28125 0.0625 1.726562 -0.132812 1.28125 -0.53125 C 0.832031 -0.925781 0.609375 -1.5 0.609375 -2.25 Z M 0.609375 -2.25 "/></g></g></g><g fill="#95cb22" fill-opacity="1"><g transform="translate(213.807303, 210.327514)"><g><path d="M 0.28125 -4.9375 L 0.28125 -5.84375 L 4.609375 -5.84375 L 4.609375 -4.9375 L 3.03125 -4.9375 L 3.03125 0 L 1.859375 0 L 1.859375 -4.9375 Z M 0.28125 -4.9375 "/></g></g></g><g fill="#95cb22" fill-opacity="1"><g transform="translate(219.701708, 210.327514)"><g><path d="M 1.8125 -2.328125 L 1.8125 0 L 0.625 0 L 0.625 -5.84375 L 2.78125 -5.84375 C 3.457031 -5.84375 3.976562 -5.671875 4.34375 -5.328125 C 4.707031 -4.992188 4.890625 -4.582031 4.890625 -4.09375 C 4.890625 -3.71875 4.773438 -3.367188 4.546875 -3.046875 C 4.328125 -2.734375 3.976562 -2.519531 3.5 -2.40625 L 4.984375 0 L 3.59375 0 L 2.1875 -2.328125 Z M 1.8125 -4.9375 L 1.8125 -3.234375 L 2.78125 -3.234375 C 3.070312 -3.234375 3.296875 -3.304688 3.453125 -3.453125 C 3.609375 -3.609375 3.6875 -3.816406 3.6875 -4.078125 C 3.6875 -4.347656 3.609375 -4.554688 3.453125 -4.703125 C 3.296875 -4.859375 3.070312 -4.9375 2.78125 -4.9375 Z M 1.8125 -4.9375 "/></g></g></g><g fill="#95cb22" fill-opacity="1"><g transform="translate(226.140335, 210.327514)"><g><path d="M 0.625 0 L 0.625 -5.84375 L 1.8125 -5.84375 L 1.8125 0 Z M 0.625 0 "/></g></g></g><g fill="#95cb22" fill-opacity="1"><g transform="translate(229.581519, 210.327514)"><g><path d="M 4.40625 -5.84375 L 4.40625 -4.9375 L 1.78125 -0.90625 L 4.40625 -0.90625 L 4.40625 0 L 0.421875 0 L 0.421875 -0.90625 L 3.046875 -4.9375 L 0.421875 -4.9375 L 0.421875 -5.84375 Z M 4.40625 -5.84375 "/></g></g></g><g fill="#95cb22" fill-opacity="1"><g transform="translate(235.408936, 210.327514)"><g><path d="M 0.625 0 L 0.625 -5.84375 L 1.8125 -5.84375 L 1.8125 0 Z M 0.625 0 "/></g></g></g><g fill="#95cb22" fill-opacity="1"><g transform="translate(238.850121, 210.327514)"><g><path d="M 4.578125 -1.53125 C 4.910156 -1.882812 5.078125 -2.351562 5.078125 -2.9375 C 5.078125 -3.519531 4.910156 -3.984375 4.578125 -4.328125 C 4.253906 -4.671875 3.828125 -4.84375 3.296875 -4.84375 C 2.765625 -4.84375 2.332031 -4.664062 2 -4.3125 C 1.664062 -3.96875 1.5 -3.503906 1.5 -2.921875 C 1.5 -2.347656 1.664062 -1.882812 2 -1.53125 C 2.332031 -1.1875 2.765625 -1.015625 3.296875 -1.015625 C 3.828125 -1.015625 4.253906 -1.1875 4.578125 -1.53125 Z M 3.296875 0.0625 C 2.453125 0.0625 1.738281 -0.21875 1.15625 -0.78125 C 0.582031 -1.351562 0.296875 -2.070312 0.296875 -2.9375 C 0.296875 -3.800781 0.582031 -4.515625 1.15625 -5.078125 C 1.738281 -5.640625 2.453125 -5.921875 3.296875 -5.921875 C 4.140625 -5.921875 4.847656 -5.640625 5.421875 -5.078125 C 5.992188 -4.515625 6.28125 -3.800781 6.28125 -2.9375 C 6.28125 -2.070312 5.992188 -1.351562 5.421875 -0.78125 C 4.847656 -0.21875 4.140625 0.0625 3.296875 0.0625 Z M 3.296875 0.0625 "/></g></g></g><g fill="#95cb22" fill-opacity="1"><g transform="translate(246.435808, 210.327514)"><g><path d="M 4.453125 -5.859375 L 5.640625 -5.859375 L 5.640625 0 L 4.453125 0 L 1.8125 -4.046875 L 1.8125 0 L 0.625 0 L 0.625 -5.859375 L 1.8125 -5.859375 L 4.453125 -1.8125 Z M 4.453125 -5.859375 "/></g></g></g><g fill="#95cb22" fill-opacity="1"><g transform="translate(253.703333, 210.327514)"><g><path d="M 0.625 0 L 0.625 -5.84375 L 1.8125 -5.84375 L 1.8125 0 Z M 0.625 0 "/></g></g></g><g fill="#95cb22" fill-opacity="1"><g transform="translate(257.144517, 210.327514)"><g><path d="M 2.515625 -4.984375 C 2.285156 -4.984375 2.09375 -4.921875 1.9375 -4.796875 C 1.789062 -4.679688 1.71875 -4.515625 1.71875 -4.296875 C 1.71875 -4.085938 1.769531 -3.921875 1.875 -3.796875 C 1.988281 -3.679688 2.132812 -3.59375 2.3125 -3.53125 C 2.5 -3.46875 2.695312 -3.410156 2.90625 -3.359375 C 3.113281 -3.304688 3.320312 -3.242188 3.53125 -3.171875 C 3.75 -3.097656 3.945312 -3.007812 4.125 -2.90625 C 4.300781 -2.800781 4.441406 -2.644531 4.546875 -2.4375 C 4.660156 -2.238281 4.71875 -1.992188 4.71875 -1.703125 C 4.71875 -1.222656 4.523438 -0.804688 4.140625 -0.453125 C 3.765625 -0.109375 3.257812 0.0625 2.625 0.0625 C 1.988281 0.0625 1.472656 -0.0859375 1.078125 -0.390625 C 0.691406 -0.691406 0.5 -1.113281 0.5 -1.65625 L 1.765625 -1.65625 C 1.804688 -1.132812 2.097656 -0.875 2.640625 -0.875 C 2.910156 -0.875 3.125 -0.941406 3.28125 -1.078125 C 3.4375 -1.222656 3.515625 -1.410156 3.515625 -1.640625 C 3.515625 -1.878906 3.410156 -2.0625 3.203125 -2.1875 C 2.992188 -2.320312 2.742188 -2.421875 2.453125 -2.484375 C 2.160156 -2.554688 1.863281 -2.640625 1.5625 -2.734375 C 1.269531 -2.828125 1.019531 -2.992188 0.8125 -3.234375 C 0.601562 -3.472656 0.5 -3.785156 0.5 -4.171875 C 0.5 -4.703125 0.691406 -5.125 1.078125 -5.4375 C 1.460938 -5.757812 1.957031 -5.921875 2.5625 -5.921875 C 3.164062 -5.921875 3.648438 -5.78125 4.015625 -5.5 C 4.390625 -5.226562 4.59375 -4.8125 4.625 -4.25 L 3.34375 -4.25 C 3.320312 -4.476562 3.238281 -4.65625 3.09375 -4.78125 C 2.945312 -4.914062 2.753906 -4.984375 2.515625 -4.984375 Z M 2.515625 -4.984375 "/></g></g></g><g fill="#95cb22" fill-opacity="1"><g transform="translate(263.373826, 210.327514)"><g><path d="M 0.28125 -4.9375 L 0.28125 -5.84375 L 4.609375 -5.84375 L 4.609375 -4.9375 L 3.03125 -4.9375 L 3.03125 0 L 1.859375 0 L 1.859375 -4.9375 Z M 0.28125 -4.9375 "/></g></g></g><g fill="#95cb22" fill-opacity="1"><g transform="translate(269.26823, 210.327514)"><g><path d="M 4.46875 0 L 4.09375 -1.09375 L 1.8125 -1.09375 L 1.4375 0 L 0.1875 0 L 2.25 -5.859375 L 3.65625 -5.859375 L 5.71875 0 Z M 2.125 -2 L 3.78125 -2 L 2.953125 -4.4375 Z M 2.125 -2 "/></g></g></g></svg>